<?xml version="1.0" encoding="UTF-8" standalone="no"?>
<!DOCTYPE svg PUBLIC "-//W3C//DTD SVG 1.1//EN" "http://www.w3.org/Graphics/SVG/1.1/DTD/svg11.dtd">
<svg width="100%" height="100%" viewBox="0 0 48 48" version="1.1" xmlns="http://www.w3.org/2000/svg" xmlns:xlink="http://www.w3.org/1999/xlink" xml:space="preserve" xmlns:serif="http://www.serif.com/" style="fill-rule:evenodd;clip-rule:evenodd;stroke-linejoin:round;stroke-miterlimit:2;">
    <path d="M46,12C46,10.939 45.579,9.922 44.828,9.172C44.078,8.421 43.061,8 42,8C33.633,8 14.367,8 6,8C4.939,8 3.922,8.421 3.172,9.172C2.421,9.922 2,10.939 2,12C2,18.148 2,29.852 2,36C2,37.061 2.421,38.078 3.172,38.828C3.922,39.579 4.939,40 6,40C14.367,40 33.633,40 42,40C43.061,40 44.078,39.579 44.828,38.828C45.579,38.078 46,37.061 46,36C46,29.852 46,18.148 46,12ZM25.455,30.457C25.077,30.857 24.551,31.085 24,31.085C23.449,31.085 22.923,30.857 22.545,30.457C18.949,26.643 9.73,16.865 6.864,13.825C6.723,13.676 6.506,13.628 6.315,13.704C6.125,13.779 6,13.963 6,14.168C6,18.284 6,31.285 6,35C6,35.265 6.105,35.52 6.293,35.707C6.48,35.895 6.735,36 7,36C12.17,36 35.83,36 41,36C41.265,36 41.52,35.895 41.707,35.707C41.895,35.52 42,35.265 42,35C42,31.285 42,18.284 42,14.168C42,13.963 41.875,13.779 41.685,13.704C41.494,13.628 41.277,13.676 41.136,13.825C38.27,16.865 29.051,26.643 25.455,30.457ZM37.78,12.839C37.914,12.693 37.95,12.481 37.87,12.299C37.79,12.117 37.611,12 37.412,12C32.76,12 15.24,12 10.588,12C10.389,12 10.21,12.117 10.13,12.299C10.05,12.481 10.086,12.693 10.22,12.839C12.753,15.589 20.786,24.31 23.264,27.001C23.454,27.207 23.721,27.324 24,27.324C24.279,27.324 24.546,27.207 24.736,27.001C27.214,24.31 35.247,15.589 37.78,12.839Z" style="fill:white;"/>
</svg>
